<!-- Generated by IcoMoon.io -->
<svg version="1.1" xmlns="http://www.w3.org/2000/svg" width="1648" height="1664" viewBox="0 0 1648 1664">
<title></title>
<g id="icomoon-ignore">
</g>
<path fill="#000" d="M823.999 0c-275.080 0-572 218.712-572 572 0 174.356 69.368 321.048 202.592 432.224 1.404 1.768 3.016 3.276 4.784 4.576 98.852 107.224 103.844 127.608 104.52 174.772 0.312 18.668 0.156 24.18 0 27.196l-0.208 10.868c-0.78 23.504-1.976 62.868 46.748 77.74l420.888 92.612c1.872 0.416 3.744 0.624 5.564 0.624 11.96 0 22.724-8.268 25.376-20.436 3.12-14.040-5.772-27.924-19.812-30.992l-418.86-92.092c-8.060-2.444-8.736-2.652-8.008-25.896l0.156-9.932c0 0 0.52-4.056 0.104-30.472-0.988-65.988-15.34-97.864-120.068-211.068-2.028-2.496-4.472-4.576-7.176-6.136-122.512-104.156-184.6-236.548-184.6-393.588 0-321.204 269.88-520 520-520 255.632 0 520 194.532 520 520 0 206.856-100.256 320.892-182.936 392.652-2.86 1.352-5.408 3.276-7.644 5.668-105.924 114.608-120.276 146.484-121.264 212.472 0 1.56-0.052 3.38 0 5.356l-0.052 1.82c-0.156 3.952-0.728 6.136-0.676 6.968-1.768-0.26-6.084-0.936-6.084-0.936l-218.14-51.324c-14.144-3.224-27.976 5.408-31.252 19.344-3.276 13.988 5.356 27.976 19.344 31.304l215.488 50.544c2.86 1.040 28.756 9.464 50.596-5.876 9.516-6.708 20.592-19.864 22.568-45.032l0.156-2.444c0.052-1.664 0.104-3.38 0.104-5.148 0-0.468 0-0.936-0.052-1.352l0.052-2.392c0.676-46.904 5.564-67.288 104.26-174.512 0.468-0.364 0.988-0.728 1.404-1.144 138.684-116.532 206.128-259.168 206.128-435.968 0-358.020-290.836-572-572-572zM1031.999 1534c11.908 0 22.62-8.164 25.324-20.28 3.224-13.988-5.564-27.924-19.604-31.096l-416-94.328c-14.092-3.12-27.924 5.616-31.096 19.604-3.224 13.988 5.564 27.924 19.604 31.096l416 94.328c1.976 0.468 3.9 0.676 5.772 0.676zM647.667 1536.808c-14.092-3.12-27.872 5.668-31.096 19.656-3.12 14.040 5.668 27.924 19.708 31.044l338 75.816c1.976 0.468 3.848 0.676 5.72 0.676 11.908 0 22.672-8.216 25.376-20.332 3.12-14.040-5.668-27.924-19.708-31.044l-338-75.816z"></path>
</svg>
